<?xml version="1.0" encoding="UTF-8" standalone="no"?>
<svg
   xmlns:dc="http://purl.org/dc/elements/1.1/"
   xmlns:cc="http://creativecommons.org/ns#"
   xmlns:rdf="http://www.w3.org/1999/02/22-rdf-syntax-ns#"
   xmlns:svg="http://www.w3.org/2000/svg"
   xmlns="http://www.w3.org/2000/svg"
   xmlns:sodipodi="http://sodipodi.sourceforge.net/DTD/sodipodi-0.dtd"
   xmlns:inkscape="http://www.inkscape.org/namespaces/inkscape"
   inkscape:version="1.0 (4035a4f, 2020-05-01)"
   sodipodi:docname="app-icon.svg"
   id="svg949"
   version="1.1"
   fill="none"
   viewBox="0 0 512 512"
   height="512"
   width="512">
  <metadata
     id="metadata953">
    <rdf:RDF>
      <cc:Work
         rdf:about="">
        <dc:format>image/svg+xml</dc:format>
        <dc:type
           rdf:resource="http://purl.org/dc/dcmitype/StillImage" />
        <dc:title></dc:title>
      </cc:Work>
    </rdf:RDF>
  </metadata>
  <sodipodi:namedview
     inkscape:current-layer="svg949"
     inkscape:window-maximized="1"
     inkscape:window-y="0"
     inkscape:window-x="0"
     inkscape:cy="278.05203"
     inkscape:cx="302.05642"
     inkscape:zoom="0.7759901"
     showgrid="false"
     id="namedview951"
     inkscape:window-height="719"
     inkscape:window-width="1362"
     inkscape:pageshadow="2"
     inkscape:pageopacity="0"
     guidetolerance="10"
     gridtolerance="10"
     objecttolerance="10"
     borderopacity="1"
     bordercolor="#666666"
     pagecolor="#ffffff" />
  <circle
     style="fill:url(#paint0_linear_212_142);stroke-width:2.33456"
     id="circle938"
     fill="url(#paint0_linear_212_142)"
     r="213.66982"
     cy="240.54828"
     cx="216.49042" />
  <path
     style="stroke-width:2.33456"
     id="path940"
     fill="#000584"
     d="m 175.12152,71.740327 h 79.52684 l 47.81182,-44.86197 c 10.12266,10.788086 15.54351,25.155702 15.07426,39.941882 -0.46924,14.786179 -6.7959,28.780009 -17.58391,38.902901 -4.75551,4.46322 -5.92045,12.14976 -1.97971,17.34696 11.67047,15.39083 19.66168,33.72765 22.65692,53.69819 -20.48111,1.83473 -36.53356,19.04255 -36.53356,39.99991 0,12.81067 9.38261,20.77339 21.37992,24.82993 1.74625,0.58994 1.96337,3.21376 0.30816,4.01965 -11.4767,5.5838 -21.95422,13.09805 -30.9773,22.23319 -10.50085,10.6316 -18.82824,23.25224 -24.51056,37.14055 -2.56802,6.27296 -4.88624,15.80498 -6.65817,24.36815 -0.30349,1.46377 0.9455,2.25052 1.59217,0.36653 10.30009,-30.00146 27.77195,-47.53168 35.88221,-55.66763 0.46458,-0.46691 0.89881,-0.90114 1.30036,-1.30735 8.74526,-8.85499 22.53785,-18.21285 33.96553,-23.00524 10.21838,-4.28509 23.42499,-6.7107 34.4558,-7.17621 h 9.06743 c 11.74985,-0.20077 22.93474,1.56976 33.28852,4.96165 13.30933,4.36072 25.24595,11.40153 35.23554,20.38025 19.87179,17.85473 32.04886,43.37382 32.04886,70.70454 v 79.37743 c 0,16.1038 13.05487,29.15867 29.15867,29.15867 8.19432,0 15.59954,-3.38278 20.89667,-8.82464 -2.28788,32.14458 -29.09098,57.51426 -61.8192,57.51426 -34.227,0 -61.9756,-27.7486 -61.9756,-61.97794 l 1.91667,-66.73812 c -38.9008,52.81946 -101.52775,87.09316 -172.15944,87.09316 -18.91719,0 -37.26007,-2.45829 -54.7268,-7.07372 1.96477,-9.7538 4.41863,-24.02264 4.38057,-34.30639 -0.0633,-17.11 -3.26278,-31.70101 -20.46827,-51.21094 -48.741207,-55.26841 -33.43956,-92.84318 -17.95231,-109.23717 0,0 17.95231,-22.85676 17.95231,-35.62261 0,-22.18067 -17.61076,-40.15189 -41.05583,-40.15189 3.31554,-21.9108 12.64329,-41.84912 26.24888,-58.0804 3.13741,-3.74323 2.51245,-9.47061 -1.04915,-12.81277 -10.78825,-10.122892 -17.11304,-24.116722 -17.58346,-38.902901 -0.47041,-14.78618 4.95231,-29.153796 15.0752,-39.941882 z m 3.59289,58.384123 c -11.07796,-2.77767 -17.88368,-10.29449 -17.56595,-18.83945 23.71822,-10.1292 38.66478,10.93672 38.66478,10.93672 0,0 -7.75051,11.24955 -21.09883,7.90273 z M 268.21917,111.285 c 0.3175,8.54496 -6.48775,16.06178 -17.56525,18.83945 -13.34902,3.34682 -21.0986,-7.90273 -21.0986,-7.90273 0,0 14.94703,-21.06592 38.66385,-10.93672 z"
     clip-rule="evenodd"
     fill-rule="evenodd" />
  <defs
     id="defs947">
    <linearGradient
       gradientTransform="matrix(2.3345616,0,0,2.3345616,0.9048555,24.827779)"
       gradientUnits="userSpaceOnUse"
       y2="183.92799"
       x2="92.3452"
       y1="0.87835699"
       x1="92.3452"
       id="paint0_linear_212_142">
      <stop
         id="stop942"
         stop-color="#65C8FF"
         offset="0.640625" />
      <stop
         id="stop944"
         stop-color="#1F7AB7"
         offset="1" />
    </linearGradient>
  </defs>
</svg>
