<?xml version="1.0" encoding="UTF-8" standalone="no"?>
<svg
   xmlns:dc="http://purl.org/dc/elements/1.1/"
   xmlns:cc="http://creativecommons.org/ns#"
   xmlns:rdf="http://www.w3.org/1999/02/22-rdf-syntax-ns#"
   xmlns:svg="http://www.w3.org/2000/svg"
   xmlns="http://www.w3.org/2000/svg"
   xmlns:sodipodi="http://sodipodi.sourceforge.net/DTD/sodipodi-0.dtd"
   xmlns:inkscape="http://www.inkscape.org/namespaces/inkscape"
   sodipodi:docname="app-icon-white.svg"
   inkscape:version="1.0 (4035a4f, 2020-05-01)"
   id="svg3899"
   version="1.1"
   viewBox="0 0 135.46666 135.46666"
   height="512"
   width="512">
  <defs
     id="defs3893" />
  <sodipodi:namedview
     inkscape:window-maximized="1"
     inkscape:window-y="0"
     inkscape:window-x="0"
     inkscape:window-height="719"
     inkscape:window-width="1362"
     units="px"
     showgrid="false"
     inkscape:document-rotation="0"
     inkscape:current-layer="layer1"
     inkscape:document-units="mm"
     inkscape:cy="372.17476"
     inkscape:cx="65.714286"
     inkscape:zoom="0.49497475"
     inkscape:pageshadow="2"
     inkscape:pageopacity="0.0"
     borderopacity="1.0"
     bordercolor="#666666"
     pagecolor="#ffffff"
     id="base" />
  <metadata
     id="metadata3896">
    <rdf:RDF>
      <cc:Work
         rdf:about="">
        <dc:format>image/svg+xml</dc:format>
        <dc:type
           rdf:resource="http://purl.org/dc/dcmitype/StillImage" />
        <dc:title></dc:title>
      </cc:Work>
    </rdf:RDF>
  </metadata>
  <g
     id="layer1"
     inkscape:groupmode="layer"
     inkscape:label="Layer 1">
    <path
       style="stroke-width:0.607933;fill:#ffffff"
       fill-rule="evenodd"
       clip-rule="evenodd"
       d="M 67.570524,19.474915 H 46.861279 L 34.411415,7.7926179 c -2.635999,2.8092781 -4.048228,6.5506701 -3.926031,10.4010761 0.122785,3.850468 1.769693,7.49454 4.578951,10.13054 0.927707,0.870376 1.090024,2.36182 0.272962,3.336578 -3.542426,4.226657 -5.971727,9.418711 -6.834993,15.124406 6.104867,0 10.691113,4.679808 10.691113,10.455784 0,3.324299 -4.675007,9.276341 -4.675007,9.276341 -4.033026,4.268898 -8.017423,14.053585 4.675007,28.445778 4.480467,5.080529 5.313337,8.880099 5.32975,13.336259 0.01039,2.67731 -0.628602,6.39302 -1.140481,8.93297 4.548558,1.20187 9.325089,1.84202 14.251171,1.84202 18.393019,0 34.701436,-8.92445 44.831443,-22.679551 l -0.49912,17.379601 c 0,8.9129 7.22528,16.1388 16.1388,16.1388 8.52261,0 15.5023,-6.6058 16.09807,-14.97703 -1.3794,1.41769 -3.30776,2.29797 -5.44222,2.29797 -4.19291,0 -7.59247,-3.39956 -7.59247,-7.59248 V 88.970747 c 0,-7.116484 -3.17099,-13.761802 -8.34571,-18.411863 -2.60135,-2.337888 -5.70971,-4.171408 -9.17615,-5.306954 -2.69557,-0.883282 -5.608794,-1.344269 -8.667914,-1.292043 h -2.36182 c -2.871877,0.121324 -6.310955,0.752911 -8.971879,1.86872 -2.975833,1.247973 -6.567503,3.685236 -8.845427,5.991117 -0.103952,0.105233 -0.217041,0.21897 -0.338012,0.339829 -2.111958,2.119261 -6.662341,6.68424 -9.344541,14.496168 -0.168398,0.490605 -0.493034,0.28634 -0.414001,-0.09489 0.460811,-2.230492 1.065099,-4.712077 1.733823,-6.346203 1.479101,-3.616603 3.648208,-6.903095 6.382084,-9.670998 2.350268,-2.37952 5.078673,-4.336036 8.067273,-5.79009 0.431024,-0.20978 0.374487,-0.893116 -0.08026,-1.04674 -3.124171,-1.056345 -5.567454,-3.129818 -5.567454,-6.46585 0,-5.457356 4.18015,-9.938432 9.51294,-10.416147 C 83.971346,41.62429 81.890998,36.849277 78.85194,32.841418 77.825748,31.488035 78.129107,29.486416 79.367468,28.324172 82.176726,25.68817 83.823619,22.044098 83.946421,18.19363 84.068617,14.343225 82.656995,10.601833 80.020387,7.7925539 Z M 43.2228,29.772573 c -0.08329,2.225156 1.689446,4.18258 4.57409,4.905898 3.475555,0.871534 5.493891,-2.057914 5.493891,-2.057914 0,0 -3.891988,-5.485685 -10.067981,-2.847984 z m 23.307551,4.905898 c 2.884643,-0.723318 4.656767,-2.680742 4.57409,-4.905898 -6.175994,-2.637701 -10.06859,2.847984 -10.06859,2.847984 0,0 2.01834,2.929448 5.4945,2.057914 z M 88.812928,17.342649 c 0.0067,0.334486 0.0049,0.670003 -0.0055,1.006068 -0.06261,1.967455 -0.423732,3.894542 -1.055375,5.721199 11.30939,8.666026 18.775417,22.095698 19.400977,37.290563 2.18248,0.886914 4.22818,2.012392 6.10729,3.338097 0.009,-0.420504 0.0145,-0.842222 0.0145,-1.264977 0,-19.175741 -9.70079,-36.085828 -24.46202,-46.09095 z M 39.611067,109.61617 c -0.132531,1.86938 -0.512487,4.18743 -0.897309,6.15895 C 17.298095,108.03249 1.9927674,87.520208 1.9927674,63.433599 c 0,-18.810009 9.3342086,-35.44002 23.6230686,-45.510982 0.0012,0.141884 0.0043,0.283905 0.0085,0.426041 0.06871,2.150988 0.493642,4.253707 1.238969,6.229735 -11.447983,9.078386 -18.791208,23.109302 -18.791208,38.855206 0,21.013504 13.077861,38.973071 31.538968,46.182571 z"
       fill="#000000"
       id="path3304" />
  </g>
</svg>
